<svg width="24" height="25" viewBox="0 0 24 25" fill="none" xmlns="http://www.w3.org/2000/svg">
<path fill-rule="evenodd" clip-rule="evenodd" d="M3.24985 9.25C3.24985 6.92936 4.17172 4.70376 5.81267 3.06282C7.45361 1.42187 9.67921 0.5 11.9999 0.5C14.3205 0.5 16.5461 1.42187 18.187 3.06282C19.828 4.70376 20.7498 6.92936 20.7498 9.25V13.955L23.0274 18.51C23.1322 18.7197 23.1817 18.9526 23.1712 19.1868C23.1606 19.421 23.0904 19.6485 22.9672 19.8479C22.8439 20.0473 22.6718 20.2119 22.467 20.326C22.2623 20.4401 22.0318 20.5 21.7973 20.5H16.8424C16.5643 21.5728 15.9379 22.5229 15.0614 23.2012C14.185 23.8794 13.1081 24.2474 11.9999 24.2474C10.8916 24.2474 9.81473 23.8794 8.93827 23.2012C8.06182 22.5229 7.4354 21.5728 7.15735 20.5H2.20235C1.96795 20.5 1.73743 20.4401 1.53269 20.326C1.32794 20.2119 1.15577 20.0473 1.03253 19.8479C0.909292 19.6485 0.839071 19.421 0.828538 19.1868C0.818005 18.9526 0.86751 18.7197 0.972352 18.51L3.24985 13.955V9.25ZM9.83485 20.5C10.0543 20.88 10.3699 21.1956 10.7499 21.415C11.1299 21.6344 11.561 21.7499 11.9999 21.7499C12.4387 21.7499 12.8698 21.6344 13.2498 21.415C13.6298 21.1956 13.9454 20.88 14.1649 20.5H9.83485ZM11.9999 3C10.3422 3 8.75254 3.65848 7.58043 4.83058C6.40833 6.00269 5.74985 7.5924 5.74985 9.25V13.955C5.74983 14.3429 5.65953 14.7255 5.4861 15.0725L4.0236 18H19.9774L18.5149 15.0725C18.341 14.7256 18.2503 14.343 18.2499 13.955V9.25C18.2499 7.5924 17.5914 6.00269 16.4193 4.83058C15.2472 3.65848 13.6575 3 11.9999 3Z" fill="#64707D"/>
</svg>
