<svg width="29.33" height="21.33" viewBox="0 0 30 22" fill="none" xmlns="http://www.w3.org/2000/svg">
<path d="M2.33399 21.6666C1.22942 21.6666 0.333984 20.7712 0.333984 19.6666V17.9333C0.333984 17.1777 0.528651 16.4835 0.917984 15.8506C1.30732 15.2177 1.82376 14.7342 2.46732 14.4C3.8451 13.7111 5.2451 13.1946 6.66732 12.8506C8.08954 12.5066 9.53398 12.3342 11.0007 12.3333C12.4673 12.3324 13.9118 12.5048 15.334 12.8506C16.7562 13.1964 18.1562 13.7128 19.534 14.4C20.1784 14.7333 20.6953 15.2168 21.0847 15.8506C21.474 16.4844 21.6682 17.1786 21.6673 17.9333V19.6666C21.6673 20.7712 20.7719 21.6666 19.6673 21.6666H2.33399ZM24.334 21.6666V17.6666C24.334 16.6888 24.062 15.7497 23.518 14.8493C22.974 13.9488 22.2015 13.1768 21.2006 12.5333C22.334 12.6666 23.4006 12.8946 24.4006 13.2173C25.4006 13.54 26.334 13.9342 27.2006 14.4C28.0006 14.8444 28.6118 15.3386 29.034 15.8826C29.4562 16.4266 29.6673 17.0213 29.6673 17.6666V20.6666C29.6673 21.2189 29.2196 21.6666 28.6673 21.6666H24.334ZM11.0007 11C9.53398 11 8.27843 10.4777 7.23398 9.43329C6.18954 8.38884 5.66732 7.13329 5.66732 5.66662C5.66732 4.19995 6.18954 2.9444 7.23398 1.89995C8.27843 0.855509 9.53398 0.333286 11.0007 0.333286C12.4673 0.333286 13.7229 0.855509 14.7673 1.89995C15.8118 2.9444 16.334 4.19995 16.334 5.66662C16.334 7.13329 15.8118 8.38884 14.7673 9.43329C13.7229 10.4777 12.4673 11 11.0007 11ZM24.334 5.66662C24.334 7.13329 23.8118 8.38884 22.7673 9.43329C21.7229 10.4777 20.4673 11 19.0007 11C18.7562 11 18.4451 10.9724 18.0673 10.9173C17.6895 10.8622 17.3784 10.8008 17.134 10.7333C17.734 10.0222 18.1953 9.23329 18.518 8.36662C18.8406 7.49995 19.0015 6.59995 19.0007 5.66662C18.9998 4.73329 18.8389 3.83329 18.518 2.96662C18.1971 2.09995 17.7358 1.31106 17.134 0.599953C17.4451 0.488841 17.7562 0.416397 18.0673 0.38262C18.3784 0.348842 18.6895 0.332397 19.0007 0.333286C20.4673 0.333286 21.7229 0.855509 22.7673 1.89995C23.8118 2.9444 24.334 4.19995 24.334 5.66662ZM3.00065 19H19.0007V17.9333C19.0007 17.6888 18.9398 17.4666 18.818 17.2666C18.6962 17.0666 18.5349 16.9111 18.334 16.8C17.134 16.2 15.9229 15.7502 14.7006 15.4506C13.4784 15.1511 12.2451 15.0008 11.0007 15C9.75621 14.9991 8.52287 15.1493 7.30065 15.4506C6.07843 15.752 4.86732 16.2017 3.66732 16.8C3.46732 16.9111 3.30598 17.0666 3.18332 17.2666C3.06065 17.4666 2.99976 17.6888 3.00065 17.9333V19ZM11.0007 8.33329C11.734 8.33329 12.362 8.0724 12.8847 7.55062C13.4073 7.02884 13.6682 6.40084 13.6673 5.66662C13.6664 4.9324 13.4055 4.30484 12.8847 3.78395C12.3638 3.26306 11.7358 3.00173 11.0007 2.99995C10.2655 2.99818 9.63798 3.25951 9.11798 3.78395C8.59798 4.3084 8.33665 4.93595 8.33398 5.66662C8.33132 6.39729 8.59265 7.02529 9.11798 7.55062C9.64332 8.07595 10.2709 8.33684 11.0007 8.33329Z" fill="#26AA39"/>
</svg>
