<svg width="24" height="24" viewBox="0 0 24 24" fill="none" xmlns="http://www.w3.org/2000/svg">
<path d="M0.75 0.75H10.875V10.875H0.75V0.75ZM3 3V8.625H8.625V3H3ZM18.1875 3C17.4416 3 16.7262 3.29632 16.1988 3.82376C15.6713 4.35121 15.375 5.06658 15.375 5.8125C15.375 6.55842 15.6713 7.27379 16.1988 7.80124C16.7262 8.32868 17.4416 8.625 18.1875 8.625C18.9334 8.625 19.6488 8.32868 20.1762 7.80124C20.7037 7.27379 21 6.55842 21 5.8125C21 5.06658 20.7037 4.35121 20.1762 3.82376C19.6488 3.29632 18.9334 3 18.1875 3ZM13.125 5.8125C13.125 5.14768 13.2559 4.48938 13.5104 3.87516C13.7648 3.26095 14.1377 2.70287 14.6078 2.23277C15.0779 1.76268 15.636 1.38977 16.2502 1.13536C16.8644 0.880945 17.5227 0.75 18.1875 0.75C18.8523 0.75 19.5106 0.880945 20.1248 1.13536C20.739 1.38977 21.2971 1.76268 21.7672 2.23277C22.2373 2.70287 22.6102 3.26095 22.8646 3.87516C23.1191 4.48938 23.25 5.14768 23.25 5.8125C23.25 7.15516 22.7166 8.44282 21.7672 9.39223C20.8178 10.3416 19.5302 10.875 18.1875 10.875C16.8448 10.875 15.5572 10.3416 14.6078 9.39223C13.6584 8.44282 13.125 7.15516 13.125 5.8125ZM0.75 13.125H10.875V23.25H0.75V13.125ZM3 15.375V21H8.625V15.375H3ZM13.125 13.125H23.25V23.25H13.125V13.125ZM15.375 15.375V21H21V15.375H15.375Z" fill="#64707D"/>
</svg>
