<svg width="150" height="150" viewBox="0 0 150 150" fill="none" xmlns="http://www.w3.org/2000/svg">
<path d="M18.75 86.625C18.75 83.3113 21.4363 80.625 24.75 80.625H63.375C66.6887 80.625 69.375 83.3113 69.375 86.625V125.25C69.375 128.564 66.6887 131.25 63.375 131.25H24.75C21.4363 131.25 18.75 128.564 18.75 125.25V86.625Z" fill="#007AFF" fill-opacity="0.15"/>
<path d="M125.25 80.625H86.625C83.3113 80.625 80.625 83.3113 80.625 86.625V125.25C80.625 128.564 83.3113 131.25 86.625 131.25H125.25C128.564 131.25 131.25 128.564 131.25 125.25V86.625C131.25 83.3113 128.564 80.625 125.25 80.625Z" fill="#E4626F"/>
<path d="M82.5518 34.3758C81.2797 37.4469 80.625 40.7384 80.625 44.0625C80.625 50.7758 83.2919 57.2141 88.0389 61.9611C92.7859 66.7082 99.2242 69.375 105.938 69.375C112.651 69.375 119.089 66.7082 123.836 61.9611C128.583 57.2141 131.25 50.7758 131.25 44.0625C131.25 40.7384 130.595 37.4469 129.323 34.3758C128.051 31.3048 126.187 28.5143 123.836 26.1639C121.486 23.8134 118.695 21.9489 115.624 20.6768C112.553 19.4047 109.262 18.75 105.938 18.75C102.613 18.75 99.3219 19.4047 96.2508 20.6768C93.1798 21.9489 90.3894 23.8134 88.0389 26.1639C85.6884 28.5143 83.8239 31.3048 82.5518 34.3758Z" fill="#A4F4A6"/>
<path d="M63.375 18.75H24.75C21.4363 18.75 18.75 21.4363 18.75 24.75V63.375C18.75 66.6887 21.4363 69.375 24.75 69.375H63.375C66.6887 69.375 69.375 66.6887 69.375 63.375V24.75C69.375 21.4363 66.6887 18.75 63.375 18.75Z" fill="#F4C790"/>
</svg>
