<svg width="22" height="24" viewBox="0 0 24 26" fill="none" xmlns="http://www.w3.org/2000/svg">
<path d="M22.8706 7.89188L21.8412 6.105C21.7132 5.88248 21.502 5.71994 21.2541 5.65313C21.0062 5.58633 20.7419 5.62072 20.5194 5.74875L14.37 9.31125C14.3318 9.33329 14.2885 9.34485 14.2444 9.34475C14.2004 9.34465 14.1571 9.3329 14.119 9.31069C14.081 9.28849 14.0494 9.25661 14.0276 9.21829C14.0059 9.17997 13.9946 9.13657 13.995 9.0925L14 2C14 1.73478 13.8946 1.48043 13.7071 1.29289C13.5196 1.10536 13.2652 1 13 1H11C10.7348 1 10.4804 1.10536 10.2929 1.29289C10.1054 1.48043 10 1.73478 10 2L10.0044 9.09813C10.0048 9.1422 9.99351 9.18559 9.97173 9.22391C9.94995 9.26223 9.91843 9.29411 9.88035 9.31632C9.84228 9.33853 9.79902 9.35028 9.75494 9.35037C9.71086 9.35047 9.66755 9.33892 9.62938 9.31688L3.48 5.75438C3.25746 5.62634 2.99318 5.59195 2.74529 5.65876C2.49739 5.72557 2.28619 5.88811 2.15813 6.11063L1.12938 7.89812C1.06586 8.008 1.02468 8.12933 1.00818 8.25516C0.99168 8.38099 1.0002 8.50884 1.03324 8.63138C1.06628 8.75391 1.1232 8.8687 1.20073 8.96918C1.27825 9.06966 1.37486 9.15383 1.485 9.21688L7.64063 12.7844C7.67822 12.8064 7.70939 12.8379 7.73105 12.8758C7.75271 12.9136 7.76411 12.9564 7.76411 13C7.76411 13.0436 7.75271 13.0864 7.73105 13.1242C7.70939 13.1621 7.67822 13.1936 7.64063 13.2156L1.485 16.7831C1.26406 16.9119 1.1028 17.1225 1.03622 17.3694C0.969643 17.6163 1.00312 17.8795 1.12938 18.1019L2.15875 19.8888C2.28681 20.1113 2.49802 20.2738 2.74591 20.3406C2.99381 20.4074 3.25809 20.373 3.48063 20.245L9.63 16.6825C9.66817 16.6605 9.71149 16.6489 9.75556 16.649C9.79964 16.6491 9.84291 16.6608 9.88098 16.6831C9.91905 16.7053 9.95057 16.7371 9.97235 16.7755C9.99414 16.8138 10.0054 16.8572 10.005 16.9013L10 24C10 24.2652 10.1054 24.5196 10.2929 24.7071C10.4804 24.8946 10.7348 25 11 25H13C13.2652 25 13.5196 24.8946 13.7071 24.7071C13.8946 24.5196 14 24.2652 14 24L13.9956 16.8956C13.9952 16.8516 14.0065 16.8082 14.0283 16.7698C14.0501 16.7315 14.0816 16.6996 14.1196 16.6774C14.1577 16.6552 14.201 16.6435 14.2451 16.6434C14.2891 16.6433 14.3325 16.6548 14.3706 16.6769L20.52 20.2394C20.7425 20.3674 21.0068 20.4018 21.2547 20.335C21.5026 20.2682 21.7138 20.1056 21.8419 19.8831L22.8713 18.0963C22.9348 17.9864 22.9759 17.865 22.9924 17.7392C23.0089 17.6134 23.0004 17.4855 22.9674 17.363C22.9343 17.2405 22.8774 17.1257 22.7999 17.0252C22.7224 16.9247 22.6258 16.8405 22.5156 16.7775L16.36 13.21C16.3224 13.1879 16.2912 13.1564 16.2696 13.1186C16.2479 13.0808 16.2365 13.038 16.2365 12.9944C16.2365 12.9508 16.2479 12.908 16.2696 12.8701C16.2912 12.8323 16.3224 12.8008 16.36 12.7788L22.5156 9.21125C22.737 9.08275 22.8986 8.87191 22.9651 8.62474C23.0316 8.37756 22.9976 8.11411 22.8706 7.89188Z" stroke="#F52424" stroke-width="2" stroke-linecap="round" stroke-linejoin="round"/>
</svg>
