<svg width="24" height="24" viewBox="0 0 24 24" fill="none" xmlns="http://www.w3.org/2000/svg">
<path d="M8.25065 10.1248C8.25065 9.87614 8.34942 9.63769 8.52523 9.46187C8.70105 9.28606 8.93951 9.18728 9.18815 9.18728H14.8131C15.0618 9.18728 15.3002 9.28606 15.4761 9.46187C15.6519 9.63769 15.7506 9.87614 15.7506 10.1248C15.7506 10.3734 15.6519 10.6119 15.4761 10.7877C15.3002 10.9635 15.0618 11.0623 14.8131 11.0623H9.18815C8.93951 11.0623 8.70105 10.9635 8.52523 10.7877C8.34942 10.6119 8.25065 10.3734 8.25065 10.1248ZM9.18815 12.9373C8.93951 12.9373 8.70105 13.0361 8.52523 13.2119C8.34942 13.3877 8.25065 13.6261 8.25065 13.8748C8.25065 14.1234 8.34942 14.3619 8.52523 14.5377C8.70105 14.7135 8.93951 14.8123 9.18815 14.8123H12.9381C13.1868 14.8123 13.4252 14.7135 13.6011 14.5377C13.7769 14.3619 13.8756 14.1234 13.8756 13.8748C13.8756 13.6261 13.7769 13.3877 13.6011 13.2119C13.4252 13.0361 13.1868 12.9373 12.9381 12.9373H9.18815ZM0.750647 11.9998C0.751126 9.523 1.56894 7.11559 3.07724 5.15102C4.58553 3.18646 6.69999 1.77454 9.0926 1.13431C11.4852 0.494077 14.0222 0.661314 16.3101 1.61008C18.598 2.55884 20.5088 4.23609 21.7461 6.38165C22.9835 8.52721 23.4782 11.0211 23.1536 13.4766C22.8289 15.932 21.7031 18.2116 19.9506 19.9619C18.1982 21.7121 15.9171 22.8352 13.4613 23.1567C11.0055 23.4783 8.51215 22.9805 6.36815 21.7404L1.9844 23.2029C1.82244 23.257 1.64879 23.2658 1.48219 23.2284C1.31559 23.191 1.16236 23.1088 1.03905 22.9907C0.915732 22.8726 0.827015 22.7231 0.782468 22.5583C0.737921 22.3934 0.739237 22.2195 0.786272 22.0554L2.12127 17.3848C1.22131 15.7326 0.750061 13.8812 0.750647 11.9998ZM12.0006 2.62478C10.3454 2.62468 8.71956 3.06284 7.2885 3.89473C5.85744 4.72662 4.67215 5.92258 3.85312 7.36103C3.03408 8.79949 2.6105 10.4292 2.62544 12.0844C2.64037 13.7396 3.09329 15.3613 3.93815 16.7848C4.00315 16.8947 4.045 17.0168 4.06112 17.1435C4.07724 17.2703 4.06729 17.3989 4.0319 17.5217L3.07752 20.8592L6.18627 19.8242C6.3183 19.7801 6.45848 19.766 6.59664 19.7829C6.7348 19.7997 6.86747 19.8471 6.98502 19.9217C8.21365 20.6992 9.6063 21.1803 11.0529 21.327C12.4995 21.4736 13.9603 21.2818 15.32 20.7666C16.6797 20.2515 17.9009 19.4271 18.8872 18.3587C19.8734 17.2903 20.5976 16.0072 21.0025 14.6107C21.4075 13.2142 21.4821 11.7427 21.2204 10.3125C20.9587 8.88221 20.3679 7.53243 19.4947 6.3698C18.6215 5.20718 17.4899 4.2636 16.1893 3.61363C14.8886 2.96366 13.4546 2.62512 12.0006 2.62478Z" fill="#64707D"/>
</svg>
