<svg width="20" height="21.25" viewBox="0 0 30 30" fill="none" xmlns="http://www.w3.org/2000/svg">
<path d="M24.0236 24.8806C24.0236 24.9403 23.9396 24.9702 23.7717 24.9702C23.2257 24.9702 22.8163 24.8209 22.5433 24.5225C21.4514 19.2896 20.9055 14.8028 20.9055 11.0621C20.9055 10.0872 20.937 9.12219 21 8.16713C18.5853 13.4796 16.916 18.4837 15.9921 23.1794L16.3701 24.5225L15.6772 25L12.685 23.7763C12.1391 19.021 10.9108 13.7582 9 7.98806C8.81102 10.8731 8.51706 13.9273 8.11811 17.1506C7.71916 20.354 7.30971 22.7118 6.88976 24.224C6.72178 24.3832 6.46982 24.5125 6.13386 24.612C5.7979 24.7314 5.52493 24.7911 5.31496 24.7911C5.10499 24.7911 5 24.7513 5 24.6717L5.22047 23.6868C5.36745 23.0302 5.52493 21.8961 5.69291 20.2844C5.86089 18.6728 5.94488 17.0014 5.94488 15.2704C5.94488 11.9476 5.72441 8.95307 5.28346 6.28687L5.06299 4.97367L8.30709 3.75L9.12598 4.22753C11.0577 8.36611 12.8845 13.1314 14.6063 18.5235C16.0341 14.8824 18.3228 10.1469 21.4724 4.31706C21.4934 4.27727 21.5039 4.24743 21.5039 4.22753L22.3228 3.75L25 4.97367C24.0341 7.32151 23.5512 10.9328 23.5512 15.8076C23.5512 19.4288 23.7087 22.4532 24.0236 24.8806Z" fill="#64707D"/>
</svg>
